<svg xmlns="http://www.w3.org/2000/svg" version="1.1" xmlns:xlink="http://www.w3.org/1999/xlink" xmlns:svgjs="http://svgjs.dev/svgjs" width="2000" height="499" viewBox="0 0 2000 499"><g transform="matrix(1,0,0,1,-1.2121212121212466,-0.3181982376173096)"><svg viewBox="0 0 396 99" data-background-color="#282634" preserveAspectRatio="xMidYMid meet" height="499" width="2000" xmlns="http://www.w3.org/2000/svg" xmlns:xlink="http://www.w3.org/1999/xlink"><g id="tight-bounds" transform="matrix(1,0,0,1,0.2400000000000091,0.06312951006836443)"><svg viewBox="0 0 395.52 98.87374097986326" height="98.87374097986326" width="395.52"><g><svg viewBox="0 0 684.353421143068 171.07752553798286" height="98.87374097986326" width="395.52"><g><rect width="7.1207335670243195" height="171.07752553798286" x="414.1606637880218" y="0" fill="#ff4057" opacity="1" stroke-width="0" stroke="transparent" fill-opacity="1" class="rect-o-0" data-fill-palette-color="primary" rx="1%" id="o-0" data-palette-color="#ff4057"></rect></g><g transform="matrix(1,0,0,1,0,0.4255659839253241)"><svg viewBox="0 0 395.52000000000004 170.22639357013222" height="170.22639357013222" width="395.52000000000004"><g id="textblocktransform"><svg viewBox="0 0 395.52000000000004 170.22639357013222" height="170.22639357013222" width="395.52000000000004" id="textblock"><g><svg viewBox="0 0 395.52000000000004 170.22639357013222" height="170.22639357013222" width="395.52000000000004"><g transform="matrix(1,0,0,1,0,0)"><svg width="395.52000000000004" viewBox="5.099999904632568 -37.5 192.84999084472656 79.4000015258789" height="170.22639357013222" data-palette-color="#ff4057"><svg></svg><svg></svg><g class="undefined-text-0" data-fill-palette-color="primary" id="text-0"><path xmlns="http://www.w3.org/2000/svg" d="M10.25 0h-5.15v-37.5h0.05l19.3 27.35-2.3-0.5 19.2-26.85h0.1v37.5h-5.3v-25.45l0.35 2.75-13.4 18.95h-0.1l-13.65-18.95 0.9-2.5zM51.65 0v-36.3h5.35v36.3zM95.85-18v14.8c-0.5 0.433-1.2 0.867-2.1 1.3-0.9 0.433-1.907 0.817-3.02 1.15-1.12 0.333-2.263 0.61-3.43 0.83-1.167 0.213-2.267 0.32-3.3 0.32v0c-2.933 0-5.567-0.45-7.9-1.35-2.333-0.9-4.333-2.15-6-3.75-1.667-1.6-2.94-3.477-3.82-5.63-0.887-2.147-1.33-4.487-1.33-7.02v0c0-3.1 0.5-5.85 1.5-8.25 1-2.4 2.36-4.427 4.08-6.08 1.713-1.647 3.697-2.897 5.95-3.75 2.247-0.847 4.603-1.27 7.07-1.27v0c2.167 0 4.177 0.25 6.03 0.75 1.847 0.5 3.437 1.15 4.77 1.95v0l-1.75 4.9c-0.667-0.367-1.49-0.727-2.47-1.08-0.987-0.347-1.997-0.62-3.03-0.82-1.033-0.2-1.983-0.3-2.85-0.3v0c-2.133 0-4.04 0.307-5.72 0.92-1.687 0.62-3.13 1.513-4.33 2.68-1.2 1.167-2.123 2.583-2.77 4.25-0.653 1.667-0.98 3.55-0.98 5.65v0c0 1.9 0.333 3.64 1 5.22 0.667 1.587 1.6 2.957 2.8 4.11 1.2 1.147 2.633 2.027 4.3 2.64 1.667 0.62 3.517 0.93 5.55 0.93v0c1.167 0 2.317-0.117 3.45-0.35 1.133-0.233 2.1-0.567 2.9-1v0-6.6h-7v-5.15zM109.7-36.3v23.35c0 1.533 0.383 2.917 1.15 4.15 0.767 1.233 1.783 2.217 3.05 2.95 1.267 0.733 2.683 1.1 4.25 1.1v0c1.667 0 3.15-0.367 4.45-1.1 1.3-0.733 2.327-1.717 3.08-2.95 0.747-1.233 1.12-2.617 1.12-4.15v0-23.35h5.25v23.5c0 2.633-0.617 4.94-1.85 6.92-1.233 1.987-2.9 3.53-5 4.63-2.1 1.1-4.45 1.65-7.05 1.65v0 0c-2.533 0-4.85-0.55-6.95-1.65-2.1-1.1-3.757-2.643-4.97-4.63-1.22-1.98-1.83-4.287-1.83-6.92v0-23.5zM141.7 0v-36.3h23.85v5.15h-18.5v10.35h16.45v5.15h-16.45v10.5h19.2v5.15zM174.45 0v-36.3h5.35v31.15h18.15v5.15z" fill="#ff4057" fill-rule="nonzero" stroke="none" stroke-width="1" stroke-linecap="butt" stroke-linejoin="miter" stroke-miterlimit="10" stroke-dasharray="" stroke-dashoffset="0" font-family="none" font-weight="none" font-size="none" text-anchor="none" style="mix-blend-mode: normal" data-fill-palette-color="primary" opacity="1"></path><path xmlns="http://www.w3.org/2000/svg" d="M49.6 23.5v14.8c-0.5 0.433-1.2 0.867-2.1 1.3-0.9 0.433-1.907 0.817-3.02 1.15-1.12 0.333-2.263 0.61-3.43 0.83-1.167 0.213-2.267 0.32-3.3 0.32v0c-2.933 0-5.567-0.45-7.9-1.35-2.333-0.9-4.333-2.15-6-3.75-1.667-1.6-2.943-3.477-3.83-5.63-0.88-2.147-1.32-4.487-1.32-7.02v0c0-3.1 0.5-5.85 1.5-8.25 1-2.4 2.36-4.427 4.08-6.08 1.713-1.647 3.697-2.897 5.95-3.75 2.247-0.847 4.603-1.27 7.07-1.27v0c2.167 0 4.177 0.25 6.03 0.75 1.847 0.5 3.437 1.15 4.77 1.95v0l-1.75 4.9c-0.667-0.367-1.49-0.727-2.47-1.08-0.987-0.347-1.997-0.62-3.03-0.82-1.033-0.2-1.983-0.3-2.85-0.3v0c-2.133 0-4.04 0.307-5.72 0.92-1.687 0.62-3.13 1.513-4.33 2.68-1.2 1.167-2.123 2.583-2.77 4.25-0.653 1.667-0.98 3.55-0.98 5.65v0c0 1.9 0.333 3.64 1 5.22 0.667 1.587 1.6 2.957 2.8 4.11 1.2 1.147 2.633 2.027 4.3 2.64 1.667 0.62 3.517 0.93 5.55 0.93v0c1.167 0 2.317-0.117 3.45-0.35 1.133-0.233 2.1-0.567 2.9-1v0-6.6h-7v-5.15zM60.2 41.5h-5.25l15.95-37.75h0.3l15.95 37.75h-6.1l-11.6-29.4 3.85-2.55zM63.05 32.5l1.6-4.6h12.9l1.85 4.6zM93.65 5.2h9.95c1.9 0 3.66 0.26 5.28 0.78 1.613 0.513 2.997 1.253 4.15 2.22 1.147 0.967 2.047 2.157 2.7 3.57 0.647 1.42 0.97 3.063 0.97 4.93v0c0 1.433-0.217 2.85-0.65 4.25-0.433 1.4-1.133 2.667-2.1 3.8-0.967 1.133-2.233 2.04-3.8 2.72-1.567 0.687-3.517 1.03-5.85 1.03v0h-5.3v13h-5.35zM99 23.4h5.2c1.367 0 2.51-0.217 3.43-0.65 0.913-0.433 1.63-0.977 2.15-1.63 0.513-0.647 0.88-1.347 1.1-2.1 0.213-0.747 0.32-1.47 0.32-2.17v0c0-0.667-0.107-1.367-0.32-2.1-0.22-0.733-0.587-1.433-1.1-2.1-0.52-0.667-1.213-1.217-2.08-1.65-0.867-0.433-1.933-0.65-3.2-0.65v0h-5.5zM104 26.65l6.35-0.15 9.4 15h-6.2zM123.75 23.4v0c0-2.5 0.477-4.867 1.43-7.1 0.947-2.233 2.27-4.217 3.97-5.95 1.7-1.733 3.667-3.093 5.9-4.08 2.233-0.98 4.633-1.47 7.2-1.47v0c2.533 0 4.917 0.49 7.15 1.47 2.233 0.987 4.217 2.347 5.95 4.08 1.733 1.733 3.083 3.717 4.05 5.95 0.967 2.233 1.45 4.6 1.45 7.1v0c0 2.567-0.483 4.967-1.45 7.2-0.967 2.233-2.307 4.2-4.02 5.9-1.72 1.7-3.707 3.023-5.96 3.97-2.247 0.953-4.637 1.43-7.17 1.43v0c-2.567 0-4.967-0.467-7.2-1.4-2.233-0.933-4.2-2.243-5.9-3.93-1.7-1.68-3.023-3.647-3.97-5.9-0.953-2.247-1.43-4.67-1.43-7.27zM129.25 23.4v0c0 1.867 0.34 3.607 1.02 5.22 0.687 1.62 1.63 3.037 2.83 4.25 1.2 1.22 2.59 2.17 4.17 2.85 1.587 0.687 3.297 1.03 5.13 1.03v0c1.8 0 3.483-0.343 5.05-1.03 1.567-0.68 2.94-1.63 4.12-2.85 1.187-1.213 2.113-2.63 2.78-4.25 0.667-1.613 1-3.353 1-5.22v0c0-1.867-0.343-3.61-1.03-5.23-0.68-1.613-1.61-3.037-2.79-4.27-1.187-1.233-2.57-2.2-4.15-2.9-1.587-0.7-3.28-1.05-5.08-1.05v0c-1.867 0-3.583 0.35-5.15 1.05-1.567 0.7-2.95 1.667-4.15 2.9-1.2 1.233-2.123 2.667-2.77 4.3-0.653 1.633-0.98 3.367-0.98 5.2zM195.7 41.5h-30.6c0.333-0.433 0.85-1.177 1.55-2.23 0.7-1.047 1.55-2.32 2.55-3.82 1-1.5 2.073-3.133 3.22-4.9 1.153-1.767 2.337-3.577 3.55-5.43 1.22-1.847 2.413-3.647 3.58-5.4 1.167-1.747 2.24-3.363 3.22-4.85 0.987-1.48 1.837-2.747 2.55-3.8 0.72-1.047 1.23-1.77 1.53-2.17v0l0.65 1.45h-15.95c-0.667 0-1.327-0.127-1.98-0.38-0.647-0.247-1.187-0.613-1.62-1.1-0.433-0.48-0.65-1.037-0.65-1.67v0-3.8h4.95v0.65c0 0.633 0.117 0.983 0.35 1.05 0.233 0.067 0.633 0.1 1.2 0.1v0h21.45l-21.4 31.8-0.3-0.65h22.15z" fill="#dcdcdc" fill-rule="nonzero" stroke="none" stroke-width="1" stroke-linecap="butt" stroke-linejoin="miter" stroke-miterlimit="10" stroke-dasharray="" stroke-dashoffset="0" font-family="none" font-weight="none" font-size="none" text-anchor="none" style="mix-blend-mode: normal" data-fill-palette-color="secondary" opacity="1"></path></g></svg></g></svg></g></svg></g></svg></g><g transform="matrix(1,0,0,1,439.9220611430679,44.80020986512214)"><svg viewBox="0 0 244.43136 81.47710580773858" height="81.47710580773858" width="244.43136"><g><svg xmlns="http://www.w3.org/2000/svg" xmlns:xlink="http://www.w3.org/1999/xlink" version="1.1" x="0" y="0" viewBox="6.199999809265137 35.400001525878906 87.60000610351562 29.199996948242188" enable-background="new 0 0 100 100" xml:space="preserve" height="81.47710580773858" width="244.43136" class="icon-icon-0" data-fill-palette-color="accent" id="icon-0"><polygon points="26.2,35.4 6.2,47.9 6.2,52.1 26.2,64.6 28.8,60.4 12.2,50 28.8,39.6 " fill="#dcdcdc" data-fill-palette-color="accent"></polygon><polygon points="73.8,35.4 71.2,39.6 87.8,50 71.2,60.4 73.8,64.6 93.8,52.1 93.8,47.9 " fill="#dcdcdc" data-fill-palette-color="accent"></polygon><circle cx="50" cy="50" r="5.0" fill="#dcdcdc" data-fill-palette-color="accent"></circle><circle cx="65" cy="50" r="5.0" fill="#dcdcdc" data-fill-palette-color="accent"></circle><circle cx="35" cy="50" r="5.0" fill="#dcdcdc" data-fill-palette-color="accent"></circle></svg></g></svg></g></svg></g><defs></defs></svg><rect width="395.52" height="98.87374097986326" fill="none" stroke="none" visibility="hidden"></rect></g></svg></g></svg>