<svg xmlns="http://www.w3.org/2000/svg" version="1.1" xmlns:xlink="http://www.w3.org/1999/xlink" xmlns:svgjs="http://svgjs.dev/svgjs" width="2000" height="222" viewBox="0 0 2000 222"><g transform="matrix(1,0,0,1,-1.2121212121212466,0.7350352930112223)"><svg viewBox="0 0 396 44" data-background-color="#282634" preserveAspectRatio="xMidYMid meet" height="222" width="2000" xmlns="http://www.w3.org/2000/svg" xmlns:xlink="http://www.w3.org/1999/xlink"><g id="tight-bounds" transform="matrix(1,0,0,1,0.2400000000000091,-0.14568267068690943)"><svg viewBox="0 0 395.52 44.29136534137384" height="44.29136534137384" width="395.52"><g><svg viewBox="0 0 617.5373179730711 69.15344600090373" height="44.29136534137384" width="395.52"><g><rect width="6.2053026136495255" height="69.15344600090373" x="411.76424767971076" y="0" fill="#ff4057" opacity="1" stroke-width="0" stroke="transparent" fill-opacity="1" class="rect-uu-0" data-fill-palette-color="primary" rx="1%" id="uu-0" data-palette-color="#ff4057"></rect></g><g transform="matrix(1,0,0,1,0,0.1720234975146795)"><svg viewBox="0 0 395.52 68.80939900587437" height="68.80939900587437" width="395.52"><g><svg viewBox="0 0 395.52 68.80939900587437" height="68.80939900587437" width="395.52"><g><svg viewBox="0 0 395.52 68.80939900587437" height="68.80939900587437" width="395.52"><g transform="matrix(1,0,0,1,0,0)"><svg width="395.52" viewBox="5.1 -38.1 218.14000000000001 38.5" height="68.80939900587437" data-palette-color="#ff4057"><g class="undefined-text-0" data-fill-palette-color="primary" id="text-0"><path d="M10.25 0L5.1 0 5.1-37.5 5.15-37.5 24.45-10.15 22.15-10.65 41.35-37.5 41.45-37.5 41.45 0 36.15 0 36.15-25.45 36.5-22.7 23.1-3.75 23-3.75 9.35-22.7 10.25-25.2 10.25 0Z" fill="#ff4057" data-fill-palette-color="primary"></path><path d="M75.2-18L75.2-3.2Q74.45-2.55 73.1-1.9 71.75-1.25 70.08-0.75 68.4-0.25 66.65 0.08 64.9 0.4 63.35 0.4L63.35 0.4Q58.95 0.4 55.45-0.95 51.95-2.3 49.45-4.7 46.95-7.1 45.62-10.33 44.3-13.55 44.3-17.35L44.3-17.35Q44.3-22 45.8-25.6 47.3-29.2 49.88-31.68 52.45-34.15 55.83-35.43 59.2-36.7 62.9-36.7L62.9-36.7Q66.15-36.7 68.93-35.95 71.7-35.2 73.7-34L73.7-34 71.95-29.1Q70.95-29.65 69.48-30.18 68-30.7 66.45-31 64.9-31.3 63.6-31.3L63.6-31.3Q60.4-31.3 57.88-30.38 55.35-29.45 53.55-27.7 51.75-25.95 50.78-23.45 49.8-20.95 49.8-17.8L49.8-17.8Q49.8-14.95 50.8-12.58 51.8-10.2 53.6-8.47 55.4-6.75 57.9-5.83 60.4-4.9 63.45-4.9L63.45-4.9Q65.2-4.9 66.9-5.25 68.6-5.6 69.8-6.25L69.8-6.25 69.8-12.85 62.8-12.85 62.8-18 75.2-18ZM85.8 0L80.55 0 96.5-37.75 96.8-37.75 112.75 0 106.65 0 95.05-29.4 98.9-31.95 85.8 0ZM88.65-9L90.25-13.6 103.15-13.6 105-9 88.65-9ZM119.25-36.3L129.2-36.3Q132.05-36.3 134.47-35.52 136.9-34.75 138.62-33.3 140.35-31.85 141.32-29.73 142.3-27.6 142.3-24.8L142.3-24.8Q142.3-22.65 141.65-20.55 141-18.45 139.55-16.75 138.1-15.05 135.75-14.03 133.4-13 129.9-13L129.9-13 124.6-13 124.6 0 119.25 0 119.25-36.3ZM124.6-18.1L129.8-18.1Q131.85-18.1 133.22-18.75 134.6-19.4 135.37-20.38 136.15-21.35 136.47-22.48 136.8-23.6 136.8-24.65L136.8-24.65Q136.8-25.65 136.47-26.75 136.15-27.85 135.37-28.85 134.6-29.85 133.3-30.5 132-31.15 130.1-31.15L130.1-31.15 124.6-31.15 124.6-18.1ZM129.6-14.85L135.95-15 145.35 0 139.15 0 129.6-14.85ZM150.24-18.1L150.24-18.1Q150.24-21.85 151.67-25.2 153.09-28.55 155.64-31.15 158.19-33.75 161.54-35.23 164.89-36.7 168.74-36.7L168.74-36.7Q172.54-36.7 175.89-35.23 179.24-33.75 181.84-31.15 184.44-28.55 185.89-25.2 187.34-21.85 187.34-18.1L187.34-18.1Q187.34-14.25 185.89-10.9 184.44-7.55 181.87-5 179.29-2.45 175.92-1.03 172.54 0.4 168.74 0.4L168.74 0.4Q164.89 0.4 161.54-1 158.19-2.4 155.64-4.93 153.09-7.45 151.67-10.83 150.24-14.2 150.24-18.1ZM155.74-18.1L155.74-18.1Q155.74-15.3 156.77-12.88 157.79-10.45 159.59-8.63 161.39-6.8 163.77-5.78 166.14-4.75 168.89-4.75L168.89-4.75Q171.59-4.75 173.94-5.78 176.29-6.8 178.07-8.63 179.84-10.45 180.84-12.88 181.84-15.3 181.84-18.1L181.84-18.1Q181.84-20.9 180.82-23.33 179.79-25.75 178.02-27.6 176.24-29.45 173.87-30.5 171.49-31.55 168.79-31.55L168.79-31.55Q165.99-31.55 163.64-30.5 161.29-29.45 159.49-27.6 157.69-25.75 156.72-23.3 155.74-20.85 155.74-18.1ZM223.24 0L192.64 0Q193.14-0.65 194.19-2.23 195.24-3.8 196.74-6.05 198.24-8.3 199.97-10.95 201.69-13.6 203.51-16.38 205.34-19.15 207.09-21.78 208.84-24.4 210.32-26.63 211.79-28.85 212.87-30.43 213.94-32 214.39-32.6L214.39-32.6 215.04-31.15 199.09-31.15Q198.09-31.15 197.12-31.53 196.14-31.9 195.49-32.63 194.84-33.35 194.84-34.3L194.84-34.3 194.84-38.1 199.79-38.1 199.79-37.45Q199.79-36.5 200.14-36.4 200.49-36.3 201.34-36.3L201.34-36.3 222.79-36.3 201.39-4.5 201.09-5.15 223.24-5.15 223.24 0Z" fill="#000" data-fill-palette-color="secondary"></path></g></svg></g></svg></g></svg></g></svg></g><g transform="matrix(1,0,0,1,434.21379797307105,4.022803000451869)"><svg viewBox="0 0 183.32351999999997 61.10783999999999" height="61.10783999999999" width="183.32351999999997"><g><svg xmlns="http://www.w3.org/2000/svg" xmlns:xlink="http://www.w3.org/1999/xlink" version="1.1" x="0" y="0" viewBox="6.2 35.4 87.6 29.199999999999996" enable-background="new 0 0 100 100" xml:space="preserve" height="61.10783999999999" width="183.32351999999997" class="icon-icon-0" data-fill-palette-color="accent" id="icon-0"><polygon points="26.2,35.4 6.2,47.9 6.2,52.1 26.2,64.6 28.8,60.4 12.2,50 28.8,39.6 " fill="#000" data-fill-palette-color="accent"></polygon><polygon points="73.8,35.4 71.2,39.6 87.8,50 71.2,60.4 73.8,64.6 93.8,52.1 93.8,47.9 " fill="#000" data-fill-palette-color="accent"></polygon><circle cx="50" cy="50" r="5.0" fill="#000" data-fill-palette-color="accent"></circle><circle cx="65" cy="50" r="5.0" fill="#000" data-fill-palette-color="accent"></circle><circle cx="35" cy="50" r="5.0" fill="#000" data-fill-palette-color="accent"></circle></svg></g></svg></g></svg></g><defs></defs></svg><rect width="395.52" height="44.29136534137384" fill="none" stroke="none" visibility="hidden"></rect></g></svg></g></svg>